<svg
  height="2056"
  role="img"
  viewBox="0 0 2056 2056"
  width="2056"
  xmlns="http://www.w3.org/2000/svg"
  xmlns:xlink="http://www.w3.org/1999/xlink"
>
  <svg
    fill="none"
    height="2056"
    preserveAspectRatio="xMidYMid meet"
    viewBox="0 0 512 512"
    width="2056"
    x="0"
    y="0"
  >
    <g id="bullmq-mono-light">
      <g id="symbol">
        <svg
          height="243.745"
          preserveAspectRatio="xMidYMid meet"
          viewBox="0 0 1128 716"
          width="384.000"
          x="64.000"
          y="134.128"
        >
          <title>BullMQ</title>
          <g fill="hsl(210 13% 24%)">
            <path
              d="M214.50 711.35 c-10.15 -8.90 -16.20 -13.35 -27 -19.80 -8.05 -4.75 -11.65 -7.35 -12.70 -9.15 -0.45 -0.75 -0.80 -2.45 -0.80 -4.05 l0 -2.80 3.30 -2.65 c1.80 -1.45 4.60 -3.70 6.20 -5 4.20 -3.40 6.15 -6.45 6.40 -9.90 0.30 -3.85 -0.45 -6.10 -3.65 -10.95 -1.95 -3 -2.75 -4.70 -2.75 -5.90 0 -1.60 0.05 -1.65 2.15 -1.65 3.85 0 9.75 4.25 13.30 9.55 1.95 2.90 2.05 3.25 2.05 6.75 0 2.85 -0.30 4.45 -1.30 6.85 -2.70 6.55 -4.25 11.20 -4.50 13.85 -0.25 2.30 -0.15 2.95 0.75 4.05 1.05 1.35 9.35 6.55 14.55 9.20 1.50 0.75 5 2.65 7.75 4.25 7 4.05 6.75 4 9.70 1.10 2.40 -2.40 5.55 -8.15 8.80 -16.10 1.90 -4.75 1.90 -4.75 4.25 -4.90 l2.15 -0.15 -0.35 5.40 c-0.20 3 -0.65 7.40 -1.05 9.75 -1.50 9.35 -7.10 22.50 -10.80 25.45 -1.75 1.35 -2.10 1.45 -6.50 1.45 l-4.70 0 -5.25 -4.65z"
            />
            <path
              d="M243.50 664.15 c-1.70 -2.10 -5.25 -5.20 -9.35 -8.25 -5.45 -4.10 -7 -5.55 -8.85 -8.35 -2.90 -4.35 -3.15 -5 -3.75 -10.70 -0.90 -7.80 -0.80 -9.15 1.05 -16.60 1.30 -5.25 5.25 -13.70 11.15 -23.75 3.30 -5.60 4.75 -8.25 4.75 -8.65 0 -0.20 -0.60 -0.05 -1.35 0.35 -2.50 1.25 -12.10 3.80 -14.45 3.80 l-2.25 0 0.15 -1.85 c0.15 -1.85 0.30 -2 4.50 -4.15 2.35 -1.25 5.30 -2.95 6.50 -3.85 1.20 -0.85 4.45 -2.80 7.20 -4.30 5.65 -3.10 10.25 -4.35 15.75 -4.35 l3.55 0 -0.20 3.15 c-0.20 2.50 -0.60 3.75 -2.15 6.35 -1.10 1.80 -2.30 3.85 -2.75 4.60 -0.40 0.70 -1.80 2.85 -3.05 4.75 -6.65 9.85 -11.85 19.25 -14.60 26.40 -1.45 3.70 -3.55 11.15 -4.10 14.55 -0.40 2.55 0.65 6.85 2.45 9.90 0.70 1.20 3.10 3.70 5.40 5.60 4.85 3.95 6.35 5.45 8.35 8.35 2.05 3.05 3.05 5.65 3.05 8.15 l0 2.20 -2.10 -0.05 c-2 0 -2.30 -0.20 -4.90 -3.30z"
            />
            <path
              d="M165.50 626.30 c0 -1.40 0.35 -2 2.15 -3.35 5 -3.95 11.90 -11.80 15.25 -17.45 1.35 -2.35 2.45 -4.30 2.40 -4.40 -0.10 -0.05 -1.45 0.65 -3.05 1.65 -2.30 1.35 -3.50 1.75 -5.35 1.75 l-2.40 0 0 -2.35 c0 -2.15 0.20 -2.50 2.40 -4.55 2.40 -2.30 3.70 -3.15 8.70 -6.10 2.20 -1.30 3.05 -2.15 3.65 -3.60 1.35 -3.45 0.60 -5.90 -1.65 -5.20 -1.95 0.65 -6.45 3.40 -9.35 5.80 -8.90 7.25 -16.30 10.85 -23.55 11.35 l-4.20 0.30 0 -1.80 c0 -1.75 0.05 -1.80 2.85 -2.60 6.50 -1.90 10.75 -5.15 19 -14.45 5.85 -6.60 7.50 -8.20 14.20 -13.70 3.75 -3.10 6.60 -7 8.15 -11.10 1.10 -3 1.30 -4.35 1.30 -8.90 0 -6.45 0.75 -13.45 1.85 -16.85 1.20 -3.70 4.95 -7.45 9.85 -9.80 3.60 -1.75 4.40 -1.95 7.95 -1.95 3.50 0 4.30 0.20 6.90 1.55 l2.95 1.60 0 2.70 c0 2.65 -0.05 2.75 -3 5.50 -6 5.55 -9.65 11.40 -11.50 18.45 -0.70 2.80 -2.75 16.90 -4 27.45 -1.80 15.20 -3.70 22.50 -7.35 27.90 -2.20 3.25 -8.05 9.25 -11.65 11.95 -1.50 1.15 -2.95 2.35 -3.25 2.60 -1.35 1.45 -8.15 6 -11.25 7.55 -2.45 1.25 -4.15 1.75 -5.75 1.75 -2.25 0 -2.25 0 -2.25 -1.70z"
            />
            <path
              d="M226 573.05 c0 -1.80 0.30 -2.25 3.90 -5.55 9.45 -8.80 21.85 -16.25 37.60 -22.75 3.15 -1.30 12.95 -4.80 21.75 -7.75 8.80 -2.95 18.10 -6.20 20.65 -7.15 6.10 -2.40 14.65 -6.80 20.10 -10.40 8.35 -5.45 11.50 -9.20 11.50 -13.70 0 -1.40 -0.25 -2.80 -0.55 -3.10 -0.70 -0.70 -5.50 2.15 -10.90 6.50 -13.40 10.90 -22.80 15.95 -35.80 19.35 -7.45 1.90 -16.10 2.40 -29.65 1.65 l-6.10 -0.30 0 -1.90 0 -1.90 6.40 -3.20 c3.50 -1.75 7.25 -3.80 8.35 -4.50 6.05 -3.95 11.10 -7.55 23.15 -16.55 20.20 -15.05 24.25 -17.65 38.20 -24.60 16.50 -8.25 24.40 -13.20 29.50 -18.50 5.15 -5.45 6.75 -11 4.05 -14.20 -1.10 -1.35 -1.60 -1.55 -2.90 -1.35 -4.30 0.70 -16.40 7.75 -24.35 14.20 -1.95 1.60 -4.10 3.35 -4.85 3.90 -0.70 0.55 -3 2.35 -5.05 4 -13 10.55 -19 14.30 -33.50 21.15 -3.45 1.60 -7.95 3.90 -10 5.10 -8.05 4.65 -8.75 5 -10.60 5 -1.80 0 -1.90 -0.05 -1.90 -1.65 0 -1.70 0.60 -2.60 8.80 -13.15 3.60 -4.60 16.05 -17.90 18.90 -20.15 1.30 -1.05 2.50 -1.55 3.60 -1.55 1.60 0 1.70 0.10 1.70 1.80 0 2.05 -0.60 3.40 -2.35 5.30 -0.70 0.70 -1.15 1.60 -1.05 1.90 0.30 0.95 11.25 -10.20 16.65 -17 7.25 -9.05 17.35 -20.25 22.25 -24.55 6.25 -5.50 10.85 -8.50 19 -12.20 13.10 -6 18.10 -9.20 25.65 -16.60 5.75 -5.60 11.95 -15.45 15.20 -24.15 1.45 -3.75 2.95 -11.05 3.40 -16.50 0.55 -6.35 -1.75 -13.65 -5.55 -17.65 -1 -1.05 -3.25 -2.80 -5 -3.90 -3.05 -1.95 -3.20 -2.10 -3.20 -4.05 l0 -2.05 3.70 0.25 c5.45 0.35 10.20 2.75 15 7.55 9.80 9.80 10.85 20.45 5.10 50.20 -0.95 4.90 -2.20 11.40 -2.75 14.40 -10.20 55.70 -25.65 90.70 -51.75 117 -21 21.10 -46.10 33 -83.55 39.50 -15.70 2.70 -23.75 4.30 -27.05 5.30 -5.10 1.55 -12.35 4.80 -17.40 7.80 -3.30 2 -4.90 2.65 -6.35 2.65 -1.95 0 -1.95 0 -1.95 -1.95z"
            />
            <path
              d="M220.40 512.90 c-1.25 -0.40 -1.40 -0.75 -1.40 -2.60 0 -2.05 0.10 -2.15 1.90 -2.70 5.65 -1.70 10.40 -7.50 13.45 -16.35 2.65 -7.75 3.35 -15.10 1.90 -19.95 -0.40 -1.35 -0.75 -3.55 -0.75 -4.90 l0 -2.40 2.20 0 2.20 0 2.50 5.15 c3.10 6.25 4.45 11 5.15 18.15 0.65 6.20 0.40 9.25 -1.05 13.40 -2.60 7.60 -11.10 12.85 -20.60 12.75 -2.30 0 -4.75 -0.25 -5.50 -0.55z"
            />
            <path
              d="M840.95 499.80 c-2.70 -1.85 -4.45 -4.70 -4.45 -7.35 0 -5.50 2.90 -14.30 7.60 -23.20 5.30 -10 10.85 -21.65 11.55 -24.25 0.40 -1.50 1.35 -4.40 2.05 -6.35 1.30 -3.65 1.70 -7.35 0.85 -7.90 -0.55 -0.30 -0.75 0.30 -1.80 5.20 -1.40 6.75 -7.10 16.30 -11.45 19.25 -7.65 5.20 -20.35 4.55 -23.25 -1.15 -0.60 -1.10 -1.05 -2.85 -1.05 -3.90 0 -2.65 2.10 -9.05 3.80 -11.60 0.75 -1.20 1.75 -3.65 2.20 -5.45 l0.80 -3.35 2.25 0 2.20 0 0 3.25 c-0.05 2.45 -0.45 4.25 -1.65 7.35 -2 5.15 -2.10 7.30 -0.30 8.45 2.70 1.80 8.05 0.05 12.75 -4.20 2.90 -2.60 7.05 -8.70 8.45 -12.40 0.55 -1.50 1.90 -4.15 3 -5.90 1.10 -1.75 2 -3.45 2 -3.85 0.05 -1.60 1.35 -2.50 3.35 -2.35 1.85 0.15 1.90 0.20 2.05 2.30 0.10 1.15 0.35 2.10 0.60 2.10 0.60 0 2 4.75 2 6.85 0 0.95 0.60 3.10 1.35 4.80 1.90 4.40 2.25 12.35 0.70 16.25 -1.90 4.75 -3.25 18.20 -2.05 20.10 0.40 0.65 0.70 0.65 2.20 -0.20 2.80 -1.50 3.45 -2.90 3.35 -7.15 l-0.10 -3.65 1.45 0 c2.15 0 4.55 0.95 5.15 2.10 0.30 0.50 0.65 2.50 0.80 4.40 0.40 4.70 -0.60 7.30 -3.90 10.05 -5.45 4.55 -12.25 4.55 -15.35 -0.05 -1.15 -1.65 -1.20 -2 -0.90 -7.25 0.15 -3 0.65 -7.40 1.05 -9.70 0.40 -2.30 0.65 -4.30 0.55 -4.40 -0.10 -0.10 -0.70 1.25 -1.30 2.95 -0.65 1.75 -2.50 6.10 -4.10 9.65 -3.45 7.55 -5.90 14.15 -7.10 18.80 -0.85 3.25 -0.85 3.40 0.15 5.35 0.55 1.10 1.25 2.15 1.55 2.35 0.25 0.15 0.50 1.40 0.50 2.80 l0 2.45 -2.90 0 c-2.20 0 -3.25 -0.30 -4.65 -1.20z m21.10 -49.35 c0.20 -0.65 0.35 -2.65 0.35 -4.45 0 -2.75 -0.05 -3 -0.45 -1.70 -0.85 2.95 -1.35 7.75 -0.75 7.55 0.30 -0.10 0.65 -0.70 0.85 -1.40z"
            />
            <path
              d="M665.05 496.60 c-1.35 -0.65 -2.20 -1.80 -3.90 -5.25 -1.25 -2.45 -2.60 -6.05 -3 -8 -1.10 -4.80 -1.05 -17.55 0 -23.35 1.85 -9.85 3.95 -19.10 5.90 -25.45 1.95 -6.50 5.65 -15.40 6.70 -16.15 0.90 -0.65 9.40 -0.40 12.75 0.40 5.85 1.40 11.10 2.10 20.25 2.70 10.05 0.70 11.20 1.05 11.30 3.65 0.05 1.15 0.50 0.20 1.75 -3.65 2 -6.25 2.50 -7.20 6.10 -11.65 2.15 -2.65 3.45 -3.70 5.90 -4.90 l3.10 -1.50 8.50 0.35 c5.85 0.25 8.75 0.15 9.40 -0.20 0.80 -0.45 0.45 -0.55 -1.85 -0.60 -1.55 0 -3.85 -0.15 -5.15 -0.30 -2.25 -0.35 -2.30 -0.35 -2.30 -2.20 0 -1.30 1.15 -4.15 3.95 -9.80 7.25 -14.55 10.60 -28.85 7.95 -33.90 -0.60 -1.10 -0.65 -0.80 -0.65 2.85 0 5 -1.50 9.05 -5.50 15.10 -4.25 6.40 -7.85 9.80 -12.75 12.10 -5.50 2.60 -9.35 3.55 -17 4.25 -7.60 0.65 -22.55 0.20 -28.90 -0.85 -5.25 -0.85 -12.70 -3.45 -17.60 -6.15 -4.85 -2.65 -16.75 -10.70 -25.50 -17.25 -9.60 -7.20 -14.05 -9.50 -20.50 -10.60 -8.35 -1.40 -13 -2.35 -13.30 -2.80 -0.15 -0.25 -1.10 -0.90 -2.15 -1.40 -1 -0.55 -3.05 -2.10 -4.50 -3.45 l-2.70 -2.50 0.35 5.80 c0.45 7.50 1.20 12 2.30 13.75 l0.85 1.45 0.30 -4.20 c0.15 -2.30 0.50 -4.75 0.80 -5.50 0.50 -1.30 0.75 -1.40 3.20 -1.40 l2.65 0 6.45 6.05 c10.15 9.50 17.15 14.55 26 18.90 5.60 2.75 8.45 3.80 18.45 6.50 8.25 2.30 11.55 4.90 11.20 8.85 -0.15 1.90 -0.20 1.95 -2.65 2.35 -6.85 1.10 -15.05 4.50 -24.15 10.05 -11.55 7 -24.45 12.25 -37.70 15.25 -9.65 2.20 -13.15 2.55 -27.90 2.90 -12.65 0.25 -15.40 0.15 -30 -1.35 -15.30 -1.60 -17.95 -1.65 -21.95 -0.80 -2.10 0.50 -5.15 0.80 -6.80 0.70 l-3 -0.15 -0.15 -1.75 c-0.20 -2.50 1.65 -4.05 7.15 -6 5.65 -2.05 12 -3.35 18.75 -3.85 l5.25 -0.40 -1.75 -1 c-1.55 -0.90 -2.65 -1 -10.75 -1 -18.75 0.05 -42.45 5.05 -60.85 12.80 -8.85 3.70 -19.45 9.65 -26.25 14.65 -4.45 3.30 -12.10 9 -15.60 11.70 -3.65 2.80 -13.35 9.20 -15.95 10.55 -1.15 0.55 -2.85 1.60 -3.90 2.30 -1.25 0.85 -2.50 1.25 -4 1.25 l-2.20 0 0 -2 c0 -1.25 0.70 -3.45 1.80 -5.85 1.80 -3.85 3.90 -9.95 5.40 -15.90 1 -3.95 3.60 -16.85 4 -20 1.20 -9.05 4.15 -18.65 8.20 -26.65 4.45 -8.85 5.95 -11.50 8.65 -15.30 1.50 -2.10 3.20 -4.55 3.85 -5.40 0.90 -1.30 6.25 -7.50 10.85 -12.60 0.30 -0.30 1.30 -1.55 2.25 -2.80 0.95 -1.25 2.90 -3.45 4.30 -4.85 2.20 -2.20 2.95 -2.65 4.40 -2.65 1.75 0 1.80 0.05 1.80 1.80 0 1.30 -0.85 3.15 -3.35 7.25 -1.90 3 -4.80 7.80 -6.55 10.60 -4 6.45 -6.60 11.80 -8.80 17.95 -1.80 4.95 -3.50 11.40 -3.10 11.75 0.10 0.10 0.85 -0.65 1.60 -1.70 5.40 -7.35 7.65 -9.95 13.40 -15.50 9.30 -8.95 20.70 -16.05 31.80 -19.85 6.70 -2.25 16.10 -3.85 22.75 -3.90 l6 -0.05 3.40 1.85 c1.85 1.05 3.60 2.35 3.90 2.90 0.75 1.45 0.30 6.25 -0.75 8.55 -0.50 1.05 -2.50 3.60 -4.45 5.65 -1.90 2.05 -3.40 3.85 -3.25 3.95 0.10 0.10 2 -0.55 4.15 -1.50 11.65 -4.90 22.70 -8.45 31.75 -10.20 3.55 -0.65 11.80 -1.55 16.15 -1.70 l3.40 -0.10 -1.65 -0.85 c-4.95 -2.50 -12.35 -5.55 -16 -6.60 -5.50 -1.60 -9.85 -2.20 -20.65 -2.85 -12.35 -0.70 -24 -2.80 -34.75 -6.15 -19.05 -6 -36.25 -16.05 -58.25 -34 -16.65 -13.60 -20.50 -16.40 -27.25 -19.80 -4.20 -2.15 -11.70 -4.65 -16.75 -5.70 -7.50 -1.50 -11.75 -1.65 -20.15 -0.75 -4.35 0.50 -9.95 1.05 -12.45 1.25 l-4.65 0.35 0 -1.80 0 -1.75 7.85 -1.85 c4.35 -1 9.15 -2.20 10.65 -2.60 1.50 -0.40 4.20 -1.15 6 -1.65 4.90 -1.35 16.65 -2.90 27 -3.55 26.80 -1.70 47.95 2.50 65.20 13 6.90 4.20 11.30 8.95 11.30 12.35 0 1.70 -0.05 1.70 -2.20 1.70 -1.70 0 -3.15 -0.55 -6.25 -2.25 -7.80 -4.40 -17.55 -6.85 -22.15 -5.60 -0.80 0.20 -1.40 0.65 -1.40 1 0 0.30 1.85 2.40 4.15 4.60 3.40 3.30 5.30 4.60 10.15 7.10 8.20 4.25 18.65 7.70 30.60 10.10 12.20 2.50 15.70 2.95 26.10 3.60 9 0.50 21 -0.05 27.25 -1.35 14.40 -2.90 23.60 -8.90 28.30 -18.40 2.05 -4.15 2.20 -4.70 2.35 -9.35 l0.20 -4.95 2.10 0 c1.55 0 2.75 0.45 4.95 1.95 4.40 3.05 7.20 3.80 13.60 3.80 5.25 0 5.65 -0.10 8.75 -1.70 2.30 -1.15 4.60 -3.05 7.75 -6.25 4.90 -5.05 9.95 -9 15.75 -12.45 6.30 -3.70 12.30 -5.15 19.60 -4.75 3.95 0.25 4.45 0.20 3.70 -0.40 -2.60 -1.90 -12.35 -2.45 -18.35 -1 -1.85 0.40 -5.45 1.70 -8 2.80 -8.35 3.65 -12.95 5.15 -21.05 7 -4.05 0.90 -5.95 1.05 -12 0.90 -6.90 -0.15 -7.30 -0.25 -11.60 -2 -6.50 -2.75 -8.80 -5.65 -9.20 -11.80 l-0.25 -3.60 2.75 -2.75 c1.50 -1.50 2.60 -2.75 2.45 -2.75 -1.15 0 -10.85 5.35 -13.30 7.35 -4.10 3.35 -9.70 9.85 -14 16.40 l-3.65 5.50 6.60 0.25 c7.60 0.35 10.35 1.30 13 4.65 1.45 1.85 1.55 2.20 1.55 6.30 0 4.15 -0.10 4.55 -1.80 7.35 -3.55 5.75 -11.15 9.95 -20.50 11.20 -9.10 1.25 -18 -1.35 -29.45 -8.65 -2.35 -1.45 -7.15 -4.55 -10.75 -6.80 -7.45 -4.75 -24.10 -13.70 -33.25 -17.85 -11.80 -5.35 -25.60 -10.25 -35.15 -12.45 -4.30 -1 -19.55 -2.75 -23.95 -2.75 l-3.40 0 0 -1.70 c0 -1.55 0.20 -1.75 2.45 -2.75 7.95 -3.40 30.80 -4.10 66.30 -2 13.70 0.80 28.15 -0.35 38.50 -3.05 4.40 -1.15 20.95 -6.75 29.50 -10 14.95 -5.70 30.90 -10.55 38.50 -11.75 7.55 -1.20 16.50 -1.45 27.50 -0.75 5.65 0.35 10.45 0.50 10.65 0.30 0.50 -0.55 -2 -4.85 -3.45 -5.95 -0.75 -0.55 -2.30 -1.15 -3.50 -1.40 -8.90 -1.70 -12 -2.05 -15.70 -1.80 -2.20 0.15 -5.40 0.15 -7.10 0 l-3.15 -0.30 0 -1.85 c0 -1.80 0.10 -1.90 2.40 -2.50 5.45 -1.40 7.20 -2.20 10.95 -4.95 2.85 -2.10 4.50 -3.75 5.80 -5.85 2.15 -3.40 2.25 -4.45 0.75 -6.55 -4.40 -5.90 -13.15 -7.80 -23.95 -5.15 -9.10 2.25 -16.80 5.90 -28.70 13.70 -21.05 13.75 -25.75 16.60 -34.75 20.95 -12.15 5.85 -23.05 9.25 -40 12.40 -5.60 1.10 -7.60 1.20 -19.50 1.15 -14.15 0 -16.05 -0.20 -48.75 -4.20 -24.80 -3.05 -26.25 -3.15 -35 -2.80 -16.70 0.65 -29.65 3.85 -50.15 12.35 -0.65 0.25 -3.70 2.10 -6.75 4.15 -7.10 4.65 -8.40 5.30 -10.60 5.30 -1.65 0 -1.75 -0.10 -1.75 -1.65 0 -2.70 5.65 -9.20 12.55 -14.50 1.80 -1.35 4.70 -1.85 5.05 -0.80 0.10 0.30 1.10 0.10 2.65 -0.55 14.55 -6.40 27.20 -10.30 39.25 -12.20 12.45 -2 31.45 -4 48.25 -5.10 6.35 -0.40 10.50 -1.25 15.45 -3.15 4.05 -1.55 6.25 -2.75 19.05 -10.30 8.85 -5.20 12.15 -6.75 14.50 -6.75 1.60 0 1.75 0.10 1.75 1.50 0 1.45 -2.20 5.50 -3 5.50 -0.75 0 -4.20 5.20 -5.35 8 -1.65 3.90 -1.50 4.95 0.90 7.25 l2 2 5.10 -0.05 c10.50 -0.10 22.55 -4.75 32.75 -12.70 9.80 -7.60 17.95 -17.95 20.35 -25.80 1.50 -5 0.65 -7.45 -3.40 -9.55 -3.45 -1.80 -8.15 -1.75 -14.85 0.10 -7.45 2.05 -8.15 2.25 -9.65 2.25 -1.35 0 -1.40 -0.05 -1.25 -2.35 0.15 -2.25 0.25 -2.45 4.40 -5.80 14.75 -11.95 32 -17.60 55.50 -18.20 19.75 -0.50 30 0.95 57.25 8.10 10.05 2.65 22.45 5.50 27 6.30 2.70 0.45 3.40 0.35 6.75 -0.80 2.70 -0.95 4.30 -1.85 5.85 -3.35 1.20 -1.15 2.15 -2.40 2.15 -2.70 0 -1.10 -5.60 -5.65 -9.45 -7.65 -9.10 -4.70 -19.05 -6.90 -35.05 -7.80 -3.15 -0.20 -6.50 -0.55 -7.35 -0.85 -1.45 -0.40 -1.65 -0.70 -1.65 -2.15 0 -2.15 1.25 -3.05 7.50 -5.45 6.60 -2.55 17.80 -6.30 20.50 -6.85 4.55 -0.90 18.50 -1.95 26.75 -1.95 17.50 0 31.05 2.50 44.25 8.10 12.50 5.35 20.95 11.90 24.50 19.05 1.50 3.10 1.60 3.60 1.40 7.25 -0.25 4.80 -1.75 7.90 -4.40 9.20 l-1.75 0.90 1.65 0 c5.40 0 10 -3.30 11.80 -8.40 2.25 -6.40 -1.60 -16.30 -8.90 -22.95 -9.45 -8.60 -19.80 -13.55 -38.60 -18.40 -15 -3.85 -24.50 -7.35 -29.45 -10.75 -6.60 -4.55 -8.50 -9.70 -5.25 -14.60 2.10 -3.20 4.95 -5.35 10.80 -8.30 7.75 -3.90 15.80 -5.60 26.20 -5.60 7.85 0 10.05 0.60 13.35 3.55 1.45 1.35 2.95 2.35 3.25 2.15 0.30 -0.20 0.40 -1.35 0.30 -2.80 -0.30 -3.05 -2.40 -5.45 -6.40 -7.25 -11.80 -5.30 -45.90 3.70 -73.40 19.45 -10.40 5.95 -16.10 10.45 -18.70 14.95 -2.50 4.20 -2.45 5.40 0.40 8.45 1.75 1.85 3.30 2.90 6.70 4.35 4.45 1.90 4.50 1.90 4.50 3.70 0 2.20 -0.20 2.30 -11.25 5.85 -16.40 5.25 -25.30 6.75 -44.25 7.60 -13.95 0.55 -29.75 2.55 -38.85 4.80 -23.45 5.80 -48.35 18.75 -73.50 38.25 -17.45 13.55 -32.50 22.05 -45.15 25.65 -10.75 3.05 -19.90 4.55 -26.85 4.50 -3.30 -0.05 -6.85 -0.20 -7.85 -0.40 -1.70 -0.35 -1.80 -0.45 -1.80 -2.25 l0 -1.90 3.65 -0.60 c8.35 -1.35 16.80 -5.05 24.95 -10.90 5.10 -3.60 13.50 -11.60 17.85 -16.95 13 -16 20.10 -23.50 30.30 -31.95 17.85 -14.90 31.65 -23.75 48.20 -31 4.85 -2.10 19.75 -7.25 21.15 -7.25 0.35 -0.05 1.55 -0.45 2.65 -1 1.10 -0.55 2.85 -0.95 3.90 -1 1.85 0 1.85 0 1.85 2 0 1.85 -0.25 2.15 -3.65 5 -3.60 2.90 -5.85 5.45 -5.85 6.50 0 0.80 3.10 2.50 4.65 2.50 2.55 0 16.50 -3.05 21.75 -4.75 12.35 -4 24.60 -13.70 24.60 -19.55 0 -3.35 -4.20 -6.15 -11 -7.30 -8.55 -1.45 -24.35 3.55 -42.75 13.60 -17.10 9.35 -31.55 15.95 -34.85 16 -0.65 0.05 -2.40 0.45 -3.90 1 -1.50 0.55 -4.85 1.15 -7.40 1.30 l-4.65 0.35 0.15 -1.95 c0.15 -1.90 0.25 -2 3.15 -3.05 10.50 -3.95 19.60 -10.75 37.25 -27.90 3.75 -3.60 8.60 -7.75 10.75 -9.20 4.45 -3 13.05 -7.20 18.75 -9.20 7.95 -2.80 24.65 -6.25 38 -7.85 14.05 -1.65 29.90 -6.10 50.50 -14.25 11.10 -4.40 20.20 -7.70 25.25 -9.30 3.70 -1.15 5.25 -1.95 7.40 -3.90 1.70 -1.55 1.70 -2.05 0.05 -4.05 -1.75 -2.05 -4.20 -3 -7.75 -3 -7.30 0 -15.35 3.05 -31.30 11.90 -18.40 10.20 -23.10 12.05 -43.15 16.80 -5.10 1.20 -10.35 2.35 -11.75 2.55 -1.35 0.20 -4.45 1 -6.90 1.80 -2.40 0.80 -5.05 1.45 -5.90 1.45 -1.45 0 -1.50 -0.05 -1.35 -2.10 0.15 -2.15 0.15 -2.15 4.15 -4.15 2.20 -1.10 4.55 -2.40 5.25 -2.85 0.70 -0.45 3.95 -1.80 7.25 -2.90 18.40 -6.35 24.40 -9.90 40.65 -24 21.05 -18.20 26.85 -22.10 38.50 -26 6.80 -2.25 11.20 -2.65 24.55 -2.35 12.25 0.30 12.20 0.30 26.55 3.60 4.90 1.10 6.55 1 8.90 -0.75 2.25 -1.60 3.10 -3.55 2.10 -4.80 -2.60 -3.05 -14.80 -7.05 -23.35 -7.60 l-4.15 -0.25 0 -1.45 0 -1.45 20.65 0.15 c19.25 0.20 20.85 0.25 24.35 1.25 7.25 2.10 15.70 6.50 25 13.05 7.40 5.20 7.20 5.10 12.75 8.35 5.25 3.05 15.60 8.15 27.75 13.60 13.85 6.25 25.50 12.35 33 17.35 5.15 3.40 17.20 12.20 23.25 16.90 2.75 2.15 6.10 4.75 7.45 5.80 1.30 1 4.15 3.30 6.25 5.10 12.35 10.35 20.40 17.25 24.80 21.25 2.75 2.45 5.90 5.30 7 6.25 2.20 1.95 6.55 6 15.95 14.75 3.55 3.30 6.85 6.30 7.35 6.65 0.85 0.60 0.85 0.50 0.35 -0.95 -0.30 -0.85 -0.55 -3.30 -0.60 -5.40 l-0.05 -3.80 2.15 -0.15 c2.60 -0.20 3.30 0.35 4.85 3.50 1.75 3.60 10.30 13.20 16.80 18.95 l2.85 2.45 -0.95 -1.85 c-0.70 -1.35 -0.95 -2.90 -0.95 -5.55 l0 -3.65 2.10 0.15 c1.95 0.15 2.25 0.35 3.95 2.90 1 1.50 5.55 6.45 10.05 11 4.50 4.55 9.45 9.95 11 12 10.15 13.50 26.90 56.90 32.10 83 0.90 4.55 2.05 15.15 2.05 19.25 l0 3 -1.60 0.15 c-1.65 0.15 -4.15 -0.85 -5.90 -2.40 -2.05 -1.80 -11.80 -8.30 -17 -11.40 -4.90 -2.85 -8.80 -4.55 -13.65 -5.90 -3.65 -1 -4.40 -1.05 -6.25 -0.50 -2.10 0.60 -2.05 0.65 2.80 0.90 4.75 0.25 5.05 0.35 11 3.30 7.50 3.75 9.05 4.65 14.10 8.10 5.75 3.85 12.05 8.75 17.50 13.55 1 0.90 1 0.85 1 -14.20 -0.05 -8.30 -0.25 -17.30 -0.45 -20.05 l-0.45 -4.95 9.45 0.30 c10.55 0.30 12.70 0.75 21.70 4.35 10.90 4.35 18.50 9.50 32.60 22.30 12.15 11.05 16.80 14.40 25.70 18.75 6.10 2.95 11.70 4.35 18.70 4.75 2.90 0.15 6 0.35 6.90 0.50 1.65 0.25 1.65 0.30 1.50 2.60 l-0.15 2.35 -4.75 2.30 c-7.05 3.45 -10.40 4.20 -18.75 4.15 -10.80 -0.05 -18.55 -2 -33.75 -8.40 -16.15 -6.80 -27.20 -9.75 -38.25 -10.15 -5.75 -0.20 -7.35 -0.10 -8.95 0.55 -1.05 0.45 -2.75 0.80 -3.70 0.80 l-1.80 0 1.55 1.35 c4.90 4.30 19.50 16.45 23.10 19.20 2.30 1.75 5.80 4.40 7.75 5.90 16.85 12.90 33.80 21.50 47.05 23.85 7.05 1.25 20.65 0.30 29.25 -2.05 5.20 -1.40 9.10 -2.25 10.30 -2.25 1.10 0 1.20 0.20 1.20 2.40 0 2.25 -0.15 2.50 -2.85 4.90 -7.05 6.15 -15.35 10.75 -22.70 12.65 -15.75 4 -28.55 3.85 -49.45 -0.70 -9.10 -2 -27.45 -8.95 -50.75 -19.35 l-10.50 -4.65 0.15 2.30 c0.15 1.95 -0.35 3.40 -3.65 10.65 -7.15 15.70 -9.60 19.95 -14.30 25 -6.50 6.95 -12.65 8.80 -20.25 6.05 -1.90 -0.70 -3.50 -1.25 -3.55 -1.25 -0.10 0 -0.15 1.70 -0.15 3.75 0 3.45 -0.10 3.85 -1.55 5.45 -2.45 2.85 -3.75 3.45 -27.45 13.40 -9.65 4 -15.40 7.35 -25.50 14.70 -4.40 3.20 -6.30 3.90 -9.35 3.55 -2.10 -0.20 -2.20 -0.20 -1.85 0.85 0.20 0.55 0.45 2.55 0.55 4.40 l0.25 3.40 -3.10 3.05 -3.10 3.10 -3.35 -0.30 c-5.30 -0.45 -11.95 -3.45 -15.65 -7.05 -2.85 -2.75 -3.60 -5.70 -3.20 -12.75 0.40 -6.65 1.60 -14.55 2.60 -16.95 0.35 -0.90 1.75 -2.80 3.15 -4.25 l2.50 -2.65 -3 -3.60 c-1.65 -2 -3.25 -3.60 -3.60 -3.45 -0.95 0.30 -1.80 5.90 -1.85 12.60 -0.05 4.90 -0.35 7.55 -1.15 10.75 l-1.10 4.25 -2.70 -0.05 -2.70 0 -4.35 -4.55 c-5.05 -5.25 -6.65 -8.10 -6.90 -12.45 -0.20 -2.95 -0.10 -3.30 3.80 -11.25 3.85 -7.85 5.55 -12.50 4.05 -11.05 -0.35 0.30 -1.60 0.60 -2.75 0.60 -2.35 0 -2.50 -0.20 -3.20 -4.25 -0.25 -1.35 -1.50 -7 -2.75 -12.50 -3.70 -16.40 -3.85 -17.40 -4.10 -30.85 -0.20 -10 -0.10 -13.05 0.55 -16.25 1.30 -6.50 4.95 -14.95 8.80 -20.65 4.10 -6 8.15 -9.20 18 -14.35 6.35 -3.30 9.50 -5.15 9.50 -5.50 0 -0.10 -0.20 -0.10 -0.45 0.05 -0.80 0.55 -9.15 2.85 -13.80 3.85 -2.90 0.65 -5.75 1.70 -8.05 3 -4.45 2.45 -7.70 2.75 -7.70 0.70 0 -1.45 -2.70 -11.50 -3.75 -14.10 -1.15 -2.70 -1.35 -1.80 -0.50 2.15 0.40 1.90 1 6.65 1.35 10.50 0.70 8.10 0.30 11.95 -1.70 17.20 -2.40 6.25 -4.35 11.75 -4.90 13.75 -0.95 3.60 -1.55 4 -5.90 3.95 -4.90 -0.05 -7.50 -0.90 -8.15 -2.55 -0.25 -0.65 -0.45 -3.45 -0.45 -6.20 0 -4.65 -0.45 -8.60 -2.25 -20.30 -1.25 -8 -6.35 -18.60 -11.95 -24.90 -1.65 -1.85 -1.55 -1.65 1.20 3.50 3.65 6.90 7.15 17.20 8.45 25 2.20 13.10 2.55 15.75 2.55 19.50 0 5.85 -3.25 19.50 -5.40 22.65 -0.65 1 -1.40 2.30 -1.65 2.95 -0.35 1 -0.75 1.15 -3.10 1.15 -2 0 -3.05 -0.30 -4.30 -1.20 -0.85 -0.65 -3.55 -2.05 -5.95 -3.05 -2.40 -1 -5.35 -2.30 -6.60 -2.85 -2.20 -0.90 -5.75 -2.05 -17.25 -5.40 -31.35 -9.25 -45.35 -19.10 -52.55 -37.05 -1.30 -3.15 -3.40 -8.85 -4.75 -12.65 -4.35 -12.35 -7 -16.05 -13.60 -19.25 -3.65 -1.80 -9.35 -3.80 -9.35 -3.30 0 0.10 1.45 1.20 3.20 2.45 3.10 2.20 7.05 6.35 8.25 8.70 2.60 5 4 15.70 2.25 17.15 -1 0.85 -5.75 1.15 -8.95 0.60 -1.35 -0.25 -3.25 -0.30 -4.20 -0.15 l-1.75 0.25 3 1.20 c3.25 1.30 13.10 6.35 16.05 8.20 4.30 2.70 12.35 10.25 15.90 14.85 4.85 6.25 6.75 11.65 7.15 20.25 l0.35 6.50 1.50 -2.95 c1.20 -2.45 1.50 -3.75 1.65 -7.40 l0.20 -4.40 2.40 0 c1.65 0 3.55 0.55 6.30 1.80 7.30 3.35 18.65 7.60 29.20 11 16.95 5.45 20.90 7.15 26.50 11.45 5.90 4.55 10.10 11.15 13.25 20.90 2.35 7.25 3.20 11.40 4.55 22.50 1.70 13.85 -0.35 20.80 -9.45 31.60 -4.60 5.50 -10.60 16.50 -12.60 23.25 -1.50 5 -8.55 16.30 -16.55 26.65 -2.70 3.50 -5.70 7.45 -6.60 8.75 -3.20 4.45 -8 9.40 -10.50 10.75 -6.15 3.35 -9.70 3.80 -21.45 2.80 -6.15 -0.55 -6.75 -0.50 -10 0.45 -3.45 1.05 -9.40 3.95 -11.60 5.65 -0.70 0.55 -2 0.95 -3.10 0.95 l-1.95 0 -0.05 -2.60 -0.05 -2.65 -1.10 3.50 c-1.20 3.85 -5.20 11.75 -6.95 13.75 -3.55 4.05 -14 9.15 -25.70 12.45 -7.80 2.25 -10.55 2.50 -13.10 1.15z m48.10 -38.70 c0.20 -3.30 0.15 -4.15 -0.15 -2.90 -0.25 0.95 -0.60 3.80 -0.75 6.25 -0.15 2.95 -0.10 3.95 0.20 2.90 0.25 -0.90 0.55 -3.70 0.70 -6.25z m7.05 -96.90 l1.55 -0.05 -2.25 -1.20 c-2.55 -1.30 -2.75 -1.25 -5.05 2.05 l-1.45 2.15 2.80 -1.45 c1.55 -0.85 3.50 -1.50 4.40 -1.50z m-51.05 -3.85 c-2.15 -2.45 -5.05 -5.85 -6.40 -7.65 -6.45 -8.50 -9.80 -11.25 -13.25 -10.90 -1.40 0.15 -1.30 0.25 2.20 2.30 3.70 2.20 7.05 5.40 16.45 15.75 2.45 2.65 4.55 4.85 4.65 4.85 0.15 0 -1.50 -1.95 -3.65 -4.35z m256.50 -4.10 c1.55 -0.90 2.85 -1.85 2.85 -2.10 0 -0.25 -0.60 -1.35 -1.30 -2.45 -1.85 -2.75 -2.20 -7.10 -0.80 -9.85 0.60 -1.10 1.65 -2.70 2.35 -3.60 0.75 -0.85 1.20 -1.55 1.05 -1.55 -1.30 0 -7.80 4.65 -9.60 6.90 -3 3.70 -3.25 5.40 -1.25 9.45 0.85 1.80 1.55 3.95 1.55 5 l0 1.80 1.15 -1 c0.60 -0.55 2.40 -1.70 4 -2.60z m8.05 -115.05 c0.70 -0.25 1.85 -1.35 2.60 -2.45 1.65 -2.55 1.40 -4.40 -1.10 -8.15 -4 -5.90 -11.60 -11.80 -19.05 -14.75 -3.70 -1.50 -4.65 -1.65 -9.10 -1.65 -3.85 0 -5.85 0.30 -9.10 1.25 -15.70 4.70 -15.90 4.75 -20.75 4.75 -2.60 0 -4.70 0.10 -4.70 0.25 0 0.15 0.55 1.40 1.25 2.75 1.55 3.10 4.70 5.05 8.45 5.35 l2.55 0.20 -2 -0.80 c-1.10 -0.45 -2.40 -0.95 -2.90 -1.10 -0.70 -0.20 -0.85 -0.70 -0.75 -2.05 0.15 -1.75 0.25 -1.85 2.90 -2.40 5.10 -1.15 8.75 -2.15 12.50 -3.50 3.20 -1.15 4.55 -1.35 9.25 -1.35 4.80 0 6.15 0.20 10.50 1.55 7.95 2.50 13.55 6.85 16.60 12.75 0.95 1.95 1.20 3.15 1.15 5.75 -0.10 4.75 -0.30 4.35 1.70 3.60z m-162.05 -9.30 c0.90 -0.45 2.85 -1.90 4.35 -3.20 3.45 -2.95 4.50 -3.50 6.70 -3.50 l1.75 0 -1.20 -1.25 c-1.05 -1 -1.25 -1.70 -1.25 -4.10 -0.05 -5.40 -0.90 -12 -1.85 -14.20 l-0.95 -2.20 0 7.75 c0.05 9.90 -0.70 12.95 -4.05 16.90 -1.30 1.50 -3.25 3.15 -4.35 3.65 -1.15 0.50 -1.75 0.95 -1.40 0.95 0.35 0 1.35 -0.35 2.25 -0.80z m76.40 -36.55 c-2.90 -3 -7.10 -7.30 -9.25 -9.65 -2.15 -2.35 -3.40 -3.45 -2.70 -2.50 0.70 0.95 2.70 3.90 4.55 6.50 3.90 5.70 5.10 6.85 9.35 9.20 1.80 1 3.30 1.80 3.30 1.80 0.05 0 -2.30 -2.40 -5.25 -5.35z"
            />
            <path
              d="M176.50 490.85 c0 -5.05 19.50 -24.75 34.75 -35.10 6.25 -4.25 8.95 -6.65 11.60 -10.50 2.55 -3.55 3.10 -5.70 1.90 -6.90 -1.55 -1.60 -3.35 -1.05 -7.80 2.45 -2.30 1.85 -5.90 4.15 -7.95 5.15 l-3.75 1.80 -8.10 0.15 -8.15 0.15 0 -1.70 c0 -2 0.55 -2.35 3.90 -2.35 2.65 -0.05 6.95 -1 9.70 -2.15 1.75 -0.75 6.55 -5.25 16.15 -15.30 3.65 -3.85 5.95 -5.30 9.75 -6.25 1.80 -0.45 2.20 -0.75 2.10 -1.55 -1.50 -12.05 -1.05 -30.70 1.20 -46 2.40 -16.30 6.30 -29.65 12 -40.95 3.80 -7.55 8.75 -13.55 14.95 -18.25 7.50 -5.65 12.95 -9.25 22.50 -14.85 2.20 -1.25 5.25 -3.15 6.75 -4.15 6.35 -4.30 11.80 -7.05 13.95 -7.05 2 0 2.05 0.05 2.05 1.75 0 1.50 -0.35 2 -3.35 4.35 -4.55 3.60 -12.35 9.35 -15.40 11.40 -1.35 0.95 -3.30 2.30 -4.25 3 -0.95 0.75 -3.10 2.30 -4.75 3.55 -4.25 3.15 -9.45 8.15 -12.10 11.65 -5 6.60 -10.15 17.95 -12.90 28.50 -3.20 12.50 -3.90 17.50 -3.85 27.80 0 9.60 0.05 10.20 2.30 20.50 1.90 8.65 1.95 8.75 3.20 6 2.05 -4.70 10 -13.55 17.15 -19.10 9.45 -7.35 32.55 -18.40 38.45 -18.40 1.95 0 2 0.05 2 1.75 0 0.95 -0.25 1.75 -0.55 1.75 -0.65 0 -11.05 5.70 -13.80 7.55 -1.15 0.80 -2.25 1.45 -2.45 1.45 -0.45 0 -5.65 3.95 -8.70 6.70 -13.50 11.95 -23.70 31.10 -28.25 53.05 -1.25 5.80 -1.35 7.20 -1.10 12.75 0.20 3.45 0.80 8.80 1.35 11.95 0.55 3.10 1 6.55 1 7.60 0 1.90 -0.05 1.95 -1.75 1.95 -2.45 0 -3.80 -1.15 -9.30 -8 -2.95 -3.70 -7.25 -11.75 -8.50 -15.95 l-0.65 -2.15 -1.15 2.55 c-2.30 5.35 -8.50 9.90 -18.80 14 -11.70 4.65 -21.95 11.70 -34.55 23.75 -2.85 2.70 -3.75 3.30 -5.15 3.30 -1.55 0 -1.65 -0.10 -1.65 -1.65z"
            />
            <path
              d="M44.75 476.70 c-15.05 -1.85 -26.65 -6.90 -34.40 -14.95 -3.25 -3.35 -7.65 -9.75 -9.15 -13.30 -1.15 -2.85 -1.20 -3.30 -1.20 -15.15 l0 -12.25 1.75 -3.90 c2.60 -5.70 6.15 -10.05 11.35 -13.90 5.80 -4.35 9.85 -6.10 17.90 -7.70 3.50 -0.70 13.70 0 17.35 1.20 3.10 1.05 7.10 4.30 10.75 8.75 6.75 8.20 8.85 9.50 15.75 9.50 2.70 0 6.10 0.15 7.55 0.35 l2.65 0.30 -0.15 2 -0.15 2 -4.25 1.40 c-2.35 0.75 -5.70 1.90 -7.50 2.60 -5.95 2.25 -11.35 3.05 -21.75 3.05 -10.50 0.05 -15.30 -0.70 -19 -2.95 -1.10 -0.65 -2.70 -1.60 -3.60 -2.05 -1.85 -1 -2.65 -2.55 -2.65 -5.15 0 -1.60 0.45 -2.35 2.75 -4.95 1.55 -1.70 3.95 -3.80 5.35 -4.70 3.10 -2 2.35 -2.30 -2.80 -1.20 -8.30 1.85 -14.70 6.55 -17.80 13.10 -2.10 4.40 -2.65 7.60 -2 12.30 1.20 8.50 4.80 15.65 11.25 22.15 7.65 7.75 15.70 11.45 29 13.45 8.85 1.30 9.50 1.35 15.20 0.80 10.70 -1 17.55 -2.95 27.30 -7.75 7.85 -3.85 11.50 -6.55 20.10 -14.85 5.95 -5.80 6.75 -6.40 8.35 -6.40 1.75 0 1.80 0.05 1.80 1.90 0 2 -0.85 3.40 -6.20 10.05 -4 5 -8.25 9.10 -13.05 12.50 -9.60 6.95 -17.15 10.25 -29.20 12.85 -7.50 1.65 -22 2.05 -31.30 0.90z"
            />
            <path
              d="M56.75 452.15 c-6.10 -0.70 -5.75 -0.55 -5.75 -2.45 l0 -1.70 5 0 c14.80 0 22.20 -2.15 33.50 -9.70 7.30 -4.85 18.15 -17.05 26.10 -29.30 3.35 -5.15 5.55 -8.75 7.15 -11.50 1.65 -2.75 5.60 -9.40 11.35 -18.90 5 -8.25 11.90 -18.55 14.95 -22.35 3.35 -4.15 10.35 -11 15 -14.65 6.75 -5.25 15.65 -9.35 23.95 -10.90 6.30 -1.20 17.85 -0.70 23 0.95 10.45 3.40 14.75 7 17 14.25 1.10 3.50 1.30 6.80 0.50 8.80 -0.80 2.20 -3.20 1.75 -9.65 -1.70 -14.15 -7.50 -27.85 -7.85 -42.60 -1 -11.25 5.15 -21.95 15.60 -34.50 33.50 -2.05 2.90 -3.20 4.60 -12.25 18.25 -12.10 18.15 -16.90 24.50 -24.10 31.80 -8.85 9 -16.75 13.60 -27.80 16.20 -2.95 0.70 -16.30 0.95 -20.85 0.40z"
            />
            <path
              d="M214.25 397.10 c-0.95 -0.80 -4.25 -5.75 -4.25 -6.40 0 -0.95 -4.75 -7.15 -6.25 -8.15 -2.65 -1.75 -9.25 -3.55 -13.20 -3.55 -5.25 0 -14 3.20 -20.90 7.65 -1.40 0.90 -2.80 1.35 -4.15 1.35 -1.95 0 -2 -0.05 -2 -1.70 0 -2.10 2.05 -4.05 8.95 -8.50 8.70 -5.70 14.60 -7.50 24.30 -7.55 9.60 0 15.60 1.60 18.85 5.10 3.55 3.80 6.20 16.60 4.40 21.35 -0.40 1.10 -0.75 1.30 -2.60 1.30 -1.30 -0.05 -2.55 -0.40 -3.15 -0.90z"
            />
          </g>
        </svg>
      </g>
    </g>
  </svg>
</svg>
